<svg width="87" height="87" viewBox="0 0 87 87" fill="none" xmlns="http://www.w3.org/2000/svg">
<g filter="url(#filter0_d_7_322)">
<path d="M12 37.115C12 19.9307 25.9307 6 43.115 6C60.2993 6 74.23 19.9307 74.23 37.115C74.23 54.2993 60.2993 68.23 43.115 68.23H24C17.3726 68.23 12 62.8574 12 56.23V37.115Z" fill="white"/>
<path d="M43.1152 7.5C59.471 7.50013 72.7305 20.7594 72.7305 37.1152C72.7303 53.471 59.471 66.7303 43.1152 66.7305H24C18.2012 66.7305 13.5003 62.0292 13.5 56.2305V37.1152C13.5 20.7593 26.7593 7.5 43.1152 7.5Z" stroke="#9B7EDE" stroke-width="3"/>
</g>
<defs>
<filter id="filter0_d_7_322" x="0" y="0" width="86.23" height="86.23" filterUnits="userSpaceOnUse" color-interpolation-filters="sRGB">
<feFlood flood-opacity="0" result="BackgroundImageFix"/>
<feColorMatrix in="SourceAlpha" type="matrix" values="0 0 0 0 0 0 0 0 0 0 0 0 0 0 0 0 0 0 127 0" result="hardAlpha"/>
<feMorphology radius="4" operator="erode" in="SourceAlpha" result="effect1_dropShadow_7_322"/>
<feOffset dy="6"/>
<feGaussianBlur stdDeviation="8"/>
<feColorMatrix type="matrix" values="0 0 0 0 0.415686 0 0 0 0 0.345098 0 0 0 0 0.588235 0 0 0 0.4 0"/>
<feBlend mode="normal" in2="BackgroundImageFix" result="effect1_dropShadow_7_322"/>
<feBlend mode="normal" in="SourceGraphic" in2="effect1_dropShadow_7_322" result="shape"/>
</filter>
</defs>
</svg>
