<svg xmlns="http://www.w3.org/2000/svg" width="512" height="512" viewBox="0 0 512 512" fill="none">
  <rect width="512" height="512" rx="112" fill="#9B7EDE"/>
  <g transform="translate(256 268)">
    <!-- ears -->
    <path d="M-112 -120 L-58 -36 L-150 -52 Z" fill="#FDFAF4"/>
    <path d="M112 -120 L58 -36 L150 -52 Z" fill="#FDFAF4"/>
    <path d="M-104 -104 L-66 -44 L-128 -56 Z" fill="#F6A96B"/>
    <path d="M104 -104 L66 -44 L128 -56 Z" fill="#F6A96B"/>
    <!-- head -->
    <circle cx="0" cy="0" r="130" fill="#FDFAF4"/>
    <!-- eyes -->
    <circle cx="-50" cy="-14" r="20" fill="#3A3550"/>
    <circle cx="50" cy="-14" r="20" fill="#3A3550"/>
    <circle cx="-44" cy="-20" r="6" fill="#FFFFFF"/>
    <circle cx="56" cy="-20" r="6" fill="#FFFFFF"/>
    <!-- nose + mouth -->
    <path d="M-14 28 L14 28 L0 44 Z" fill="#F6A96B"/>
    <path d="M0 44 C0 60 -22 60 -28 48" stroke="#A8A2B8" stroke-width="6" stroke-linecap="round" fill="none"/>
    <path d="M0 44 C0 60 22 60 28 48" stroke="#A8A2B8" stroke-width="6" stroke-linecap="round" fill="none"/>
    <!-- whiskers -->
    <path d="M-58 30 L-128 18 M-58 46 L-126 54" stroke="#A8A2B8" stroke-width="5" stroke-linecap="round"/>
    <path d="M58 30 L128 18 M58 46 L126 54" stroke="#A8A2B8" stroke-width="5" stroke-linecap="round"/>
  </g>
</svg>
