<svg xmlns="http://www.w3.org/2000/svg" width="220" height="220" viewBox="0 0 220 220" fill="none">
  <g fill="#ffffff" stroke="#ffffff" stroke-width="18" stroke-linejoin="round" stroke-linecap="round">
    <path d="M150 165 q55 5 35 -55 q-8 -26 -28 -14"/>
    <path d="M58 198 q-6 -92 52 -92 q58 0 52 92 z"/>
    <circle cx="110" cy="92" r="50"/>
    <path d="M68 56 L60 16 L102 46 Z"/>
    <path d="M152 56 L160 16 L118 46 Z"/>
  </g>
  <g fill="#E4D6BD">
    <path d="M150 165 q55 5 35 -55 q-8 -26 -28 -14"/>
    <path d="M58 198 q-6 -92 52 -92 q58 0 52 92 z"/>
    <circle cx="110" cy="92" r="50"/>
    <path d="M68 56 L60 16 L102 46 Z"/>
    <path d="M152 56 L160 16 L118 46 Z"/>
  </g>
  <path d="M68 56 L60 16 L102 46 Z" fill="#8A6F52"/>
  <path d="M152 56 L160 16 L118 46 Z" fill="#8A6F52"/>
  <ellipse cx="110" cy="116" rx="20" ry="14" fill="#8A6F52"/>
  <circle cx="92" cy="88" r="8" fill="#5B7FB0"/>
  <circle cx="128" cy="88" r="8" fill="#5B7FB0"/>
  <path d="M103 108 L117 108 L110 117 Z" fill="#C98F8F"/>
</svg>
